# xmcd
#
# Track frame offsets:
#	150
#	19711
#	41795
#	61841
#	81649
#	99785
#	113014
#	128862
#	142326
#	149125
#	166576
#	183149
#	204375
#	219980
#	231030
#	244917
#	257484
#	268570
#	285540
#	288167
#	304586
#	313016
#
# Disc length: 4286 seconds
#
# Revision: 1
# Processed by: cddbd v1.5.1PL0 Copyright (c) Steve Scherf et al.
# Submitted via: CDex 1.50Beta5
#
DISCID=3c10bc16
DTITLE=うんちく商事 - ふゆのおもいで
DYEAR=1900
DGENRE=Anime
TTITLE0=Feeling Heart
TTITLE1=ためいき
TTITLE2=鬼の伝説・鬼神楽
TTITLE3=お嬢様はエレガント&サザン・ウィンド
TTITLE4=永遠
TTITLE5=暮れ行く陽
TTITLE6=朝影
TTITLE7=pure snows
TTITLE8=少女の檻
TTITLE9=冬の花火
TTITLE10=瑠璃子
TTITLE11=凍土高原
TTITLE12=夏影 -summer light-
TTITLE13=雨
TTITLE14=虹 -prism-
TTITLE15=虹を見た小径
TTITLE16=Brand New Heart
TTITLE17=おまけ1
TTITLE18=おまけ2
TTITLE19=おまけ3
TTITLE20=おまけ4
TTITLE21=おまけ5
EXTD=
EXTT0=
EXTT1=
EXTT2=
EXTT3=
EXTT4=
EXTT5=
EXTT6=
EXTT7=
EXTT8=
EXTT9=
EXTT10=
EXTT11=
EXTT12=
EXTT13=
EXTT14=
EXTT15=
EXTT16=
EXTT17=
EXTT18=
EXTT19=
EXTT20=
EXTT21=
PLAYORDER=
